<svg xmlns="http://www.w3.org/2000/svg" xmlns:xlink="http://www.w3.org/1999/xlink" viewBox="6811.994 1090 1012.006 575.615">
  <defs>
    <style>
      .cls-1 {
        fill: none;
      }

      .cls-2 {
        fill: #baf4eb;
        opacity: 0.171;
      }

      .cls-3 {
        fill: #faee5b;
        opacity: 0.168;
      }

      .cls-4 {
        fill: #fa5b5b;
        opacity: 0.144;
      }

      .cls-5 {
        clip-path: url(#clip-path);
      }

      .cls-6 {
        fill: #fff;
        stroke: #95989a;
        stroke-width: 0.4px;
        opacity: 0.209;
      }

      .cls-7 {
        stroke: none;
      }
    </style>
    <clipPath id="clip-path">
      <rect class="cls-1" width="1009.725" height="563.838"/>
    </clipPath>
  </defs>
  <g id="Group_77" data-name="Group 77" transform="translate(5941 10)">
    <g id="Group_76" data-name="Group 76" transform="translate(870.994 1080)">
      <rect id="Rectangle_32" data-name="Rectangle 32" class="cls-2" width="344.001" height="575.615" transform="translate(668.005 0)"/>
      <rect id="Rectangle_31" data-name="Rectangle 31" class="cls-3" width="336.002" height="575.615" transform="translate(332.002 0)"/>
      <rect id="Rectangle_30" data-name="Rectangle 30" class="cls-4" width="332.002" height="575.615" transform="translate(0 0)"/>
    </g>
    <g id="Repeat_Grid_4" data-name="Repeat Grid 4" class="cls-5" transform="translate(870.994 1090.221)">
      <g transform="translate(-867 -1078)">
        <g id="Rectangle_18" data-name="Rectangle 18" class="cls-6" transform="translate(867 1078)">
          <rect class="cls-7" width="224" height="169"/>
          <rect class="cls-1" x="0.2" y="0.2" width="223.6" height="168.6"/>
        </g>
      </g>
      <g transform="translate(-643 -1078)">
        <g id="Rectangle_18-2" data-name="Rectangle 18" class="cls-6" transform="translate(867 1078)">
          <rect class="cls-7" width="224" height="169"/>
          <rect class="cls-1" x="0.2" y="0.2" width="223.6" height="168.6"/>
        </g>
      </g>
      <g transform="translate(-419 -1078)">
        <g id="Rectangle_18-3" data-name="Rectangle 18" class="cls-6" transform="translate(867 1078)">
          <rect class="cls-7" width="224" height="169"/>
          <rect class="cls-1" x="0.2" y="0.2" width="223.6" height="168.6"/>
        </g>
      </g>
      <g transform="translate(-195 -1078)">
        <g id="Rectangle_18-4" data-name="Rectangle 18" class="cls-6" transform="translate(867 1078)">
          <rect class="cls-7" width="224" height="169"/>
          <rect class="cls-1" x="0.2" y="0.2" width="223.6" height="168.6"/>
        </g>
      </g>
      <g transform="translate(29 -1078)">
        <g id="Rectangle_18-5" data-name="Rectangle 18" class="cls-6" transform="translate(867 1078)">
          <rect class="cls-7" width="224" height="169"/>
          <rect class="cls-1" x="0.2" y="0.2" width="223.6" height="168.6"/>
        </g>
      </g>
      <g transform="translate(-867 -909)">
        <g id="Rectangle_18-6" data-name="Rectangle 18" class="cls-6" transform="translate(867 1078)">
          <rect class="cls-7" width="224" height="169"/>
          <rect class="cls-1" x="0.2" y="0.2" width="223.6" height="168.6"/>
        </g>
      </g>
      <g transform="translate(-643 -909)">
        <g id="Rectangle_18-7" data-name="Rectangle 18" class="cls-6" transform="translate(867 1078)">
          <rect class="cls-7" width="224" height="169"/>
          <rect class="cls-1" x="0.2" y="0.2" width="223.6" height="168.6"/>
        </g>
      </g>
      <g transform="translate(-419 -909)">
        <g id="Rectangle_18-8" data-name="Rectangle 18" class="cls-6" transform="translate(867 1078)">
          <rect class="cls-7" width="224" height="169"/>
          <rect class="cls-1" x="0.2" y="0.2" width="223.6" height="168.6"/>
        </g>
      </g>
      <g transform="translate(-195 -909)">
        <g id="Rectangle_18-9" data-name="Rectangle 18" class="cls-6" transform="translate(867 1078)">
          <rect class="cls-7" width="224" height="169"/>
          <rect class="cls-1" x="0.2" y="0.2" width="223.6" height="168.6"/>
        </g>
      </g>
      <g transform="translate(29 -909)">
        <g id="Rectangle_18-10" data-name="Rectangle 18" class="cls-6" transform="translate(867 1078)">
          <rect class="cls-7" width="224" height="169"/>
          <rect class="cls-1" x="0.2" y="0.2" width="223.6" height="168.6"/>
        </g>
      </g>
      <g transform="translate(-867 -740)">
        <g id="Rectangle_18-11" data-name="Rectangle 18" class="cls-6" transform="translate(867 1078)">
          <rect class="cls-7" width="224" height="169"/>
          <rect class="cls-1" x="0.2" y="0.2" width="223.6" height="168.6"/>
        </g>
      </g>
      <g transform="translate(-643 -740)">
        <g id="Rectangle_18-12" data-name="Rectangle 18" class="cls-6" transform="translate(867 1078)">
          <rect class="cls-7" width="224" height="169"/>
          <rect class="cls-1" x="0.2" y="0.2" width="223.6" height="168.6"/>
        </g>
      </g>
      <g transform="translate(-419 -740)">
        <g id="Rectangle_18-13" data-name="Rectangle 18" class="cls-6" transform="translate(867 1078)">
          <rect class="cls-7" width="224" height="169"/>
          <rect class="cls-1" x="0.2" y="0.2" width="223.6" height="168.6"/>
        </g>
      </g>
      <g transform="translate(-195 -740)">
        <g id="Rectangle_18-14" data-name="Rectangle 18" class="cls-6" transform="translate(867 1078)">
          <rect class="cls-7" width="224" height="169"/>
          <rect class="cls-1" x="0.2" y="0.2" width="223.6" height="168.6"/>
        </g>
      </g>
      <g transform="translate(29 -740)">
        <g id="Rectangle_18-15" data-name="Rectangle 18" class="cls-6" transform="translate(867 1078)">
          <rect class="cls-7" width="224" height="169"/>
          <rect class="cls-1" x="0.2" y="0.2" width="223.6" height="168.6"/>
        </g>
      </g>
      <g transform="translate(-867 -571)">
        <g id="Rectangle_18-16" data-name="Rectangle 18" class="cls-6" transform="translate(867 1078)">
          <rect class="cls-7" width="224" height="169"/>
          <rect class="cls-1" x="0.2" y="0.2" width="223.6" height="168.6"/>
        </g>
      </g>
      <g transform="translate(-643 -571)">
        <g id="Rectangle_18-17" data-name="Rectangle 18" class="cls-6" transform="translate(867 1078)">
          <rect class="cls-7" width="224" height="169"/>
          <rect class="cls-1" x="0.2" y="0.2" width="223.6" height="168.6"/>
        </g>
      </g>
      <g transform="translate(-419 -571)">
        <g id="Rectangle_18-18" data-name="Rectangle 18" class="cls-6" transform="translate(867 1078)">
          <rect class="cls-7" width="224" height="169"/>
          <rect class="cls-1" x="0.2" y="0.2" width="223.6" height="168.6"/>
        </g>
      </g>
      <g transform="translate(-195 -571)">
        <g id="Rectangle_18-19" data-name="Rectangle 18" class="cls-6" transform="translate(867 1078)">
          <rect class="cls-7" width="224" height="169"/>
          <rect class="cls-1" x="0.2" y="0.2" width="223.6" height="168.6"/>
        </g>
      </g>
      <g transform="translate(29 -571)">
        <g id="Rectangle_18-20" data-name="Rectangle 18" class="cls-6" transform="translate(867 1078)">
          <rect class="cls-7" width="224" height="169"/>
          <rect class="cls-1" x="0.2" y="0.2" width="223.6" height="168.6"/>
        </g>
      </g>
    </g>
  </g>
</svg>
